Coordinates
version=1
nRows=8
nColumns=40
inDegrees=yes

Units are S.I. units (second, meters, Newtons, ...)
Angles are in degrees.

endheader
time	pelvis_tilt	pelvis_list	pelvis_rotation	pelvis_tx	pelvis_ty	pelvis_tz	hip_flexion_r	hip_adduction_r	hip_rotation_r	knee_angle_r	knee_angle_r_beta	ankle_angle_r	subtalar_angle_r	mtp_angle_r	hip_flexion_l	hip_adduction_l	hip_rotation_l	knee_angle_l	knee_angle_l_beta	ankle_angle_l	subtalar_angle_l	mtp_angle_l	lumbar_extension	lumbar_bending	lumbar_rotation	arm_flex_r	arm_add_r	arm_rot_r	elbow_flex_r	pro_sup_r	wrist_flex_r	wrist_dev_r	arm_flex_l	arm_add_l	arm_rot_l	elbow_flex_l	pro_sup_l	wrist_flex_l	wrist_dev_l
     47.28928571	     -4.55728564	     -2.26243132	      1.51778546	      0.92724938	      0.90280904	      0.40953707	     20.66823241	     -9.38988274	     -1.75884191	     66.96413461	     66.96413461	      2.56086926	    -19.05847640	      9.77081189	     20.37563823	      3.20674224	      4.85968886	     37.55731390	     37.55731390	     24.53561649	    -18.87386843	     13.63102212	     -9.98782409	      6.61331513	      4.96306931	     15.56333462	    -13.68137015	    -11.47885632	     21.82840117	     47.64685271	      0.00000000	      0.00000000	     12.81219115	    -12.37651173	     16.84332258	     37.32102309	     45.37937997	      0.00000000	      0.00000000
     47.31107143	     -4.50648088	     -2.10113386	      0.82730515	      0.92688719	      0.90130966	      0.40861541	     22.55589834	     -9.59537839	     -1.74062584	     68.67415009	     68.67415009	      4.93329420	    -19.33923763	     15.76223819	     20.19516717	      3.37805761	      4.42015608	     37.99110037	     37.99110037	     25.29489376	    -19.00711687	     14.16754976	    -10.24788081	      6.79462168	      4.79334030	     12.15407267	    -14.09649705	    -13.02377076	     21.05937516	     47.78349496	      0.00000000	      0.00000000	     14.71874658	    -13.10582171	     16.32560842	     38.81906131	     45.48265724	      0.00000000	      0.00000000
     47.33285714	     -4.49720957	     -1.95172573	      0.03047102	      0.92646873	      0.90046174	      0.40830330	     24.29257890	     -9.73646251	     -1.83728979	     69.50063727	     69.50063727	      7.25825874	    -19.50330751	     19.33312102	     19.89265534	      3.45427587	      3.88917610	     38.08877467	     38.08877467	     25.86514697	    -19.10054823	     14.52724663	    -10.48408184	      6.92753294	      4.63486869	      8.81709255	    -14.45311207	    -14.35904018	     20.53959546	     47.89219089	      0.00000000	      0.00000000	     16.66709552	    -13.95850012	     15.63307448	     40.50644923	     45.60450222	      0.00000000	      0.00000000
     47.35464286	     -4.57260557	     -1.82054682	     -0.87299173	      0.92589778	      0.90028076	      0.40867126	     25.92870967	     -9.73697624	     -2.00076768	     69.38767073	     69.38767073	      9.11077972	    -19.58194680	     19.79657186	     19.52360223	      3.42360017	      3.24857683	     37.85151640	     37.85151640	     26.17046426	    -19.18187104	     14.65548860	    -10.63390510	      7.02359175	      4.54958797	      5.79843728	    -14.77556632	    -14.70534550	     19.48778639	     47.94142647	      0.00000000	      0.00000000	     18.72559721	    -14.83462400	     14.97239301	     41.92245974	     45.70986152	      0.00000000	      0.00000000
     47.37642857	     -4.64659867	     -1.88005314	     -1.86738435	      0.92520998	      0.90100005	      0.40994441	     27.38444606	     -9.20683731	     -2.07532354	     68.37936051	     68.37936051	     11.23499290	    -19.60880342	     20.54042721	     19.01139507	      3.09471083	      2.56326002	     37.35072443	     37.35072443	     26.39697937	    -19.20759022	     14.90053871	    -10.85753611	      7.23962849	      4.60003029	      2.79170923	    -14.98573138	    -15.19863719	     18.94191793	     47.98241681	      0.00000000	      0.00000000	     20.71426944	    -15.81437657	     14.10547979	     43.74163173	     45.83723362	      0.00000000	      0.00000000
     47.39821429	     -4.84941506	     -2.05064768	     -2.93177794	      0.92436213	      0.90230065	      0.41204463	     28.79176185	     -8.23926779	     -1.98791682	     66.50568417	     66.50568417	     13.32448847	    -19.58592239	     21.37958661	     18.52038101	      2.56746977	      1.83630625	     36.63189033	     36.63189033	     26.48466082	    -19.21829998	     15.12675696	    -11.02287405	      7.53410066	      4.29169768	     -0.30692117	    -14.82437058	    -16.87390996	     20.39717936	     48.03416604	      0.00000000	      0.00000000	     22.02004921	    -17.16680645	     12.30301752	     46.61866806	     46.06368496	      0.00000000	      0.00000000
     47.42000000	     -5.14241128	     -2.30113369	     -4.05484795	      0.92334141	      0.90422240	      0.41482848	     29.98894966	     -6.95345628	     -1.75543461	     63.65194279	     63.65194279	     14.53983040	    -19.51328770	     20.13800957	     17.94911909	      1.88383042	      1.04398060	     35.58266598	     35.58266598	     26.33930863	    -19.20754429	     15.23946539	    -11.09847012	      7.85133007	      4.42497191	     -2.74661197	    -14.74694969	    -17.42970826	     19.93097543	     48.07366009	      0.00000000	      0.00000000	     23.98819749	    -18.22065687	     11.19304635	     48.35519465	     46.20652536	      0.00000000	      0.00000000
     47.44178571	     -5.38948650	     -2.63251641	     -5.21516183	      0.92234163	      0.90673886	      0.41825489	     30.74004053	     -5.41522635	     -1.34557791	     59.84286747	     59.84286747	     15.00044806	    -19.33926209	     17.83682170	     17.19020039	      1.06867097	      0.17467101	     34.33255774	     34.33255774	     26.06957489	    -19.17635949	     15.22839369	    -11.26954008	      8.19303141	      4.57675258	     -5.01058891	    -14.49345950	    -18.07537825	     19.98373286	     48.09767759	      0.00000000	      0.00000000	     25.81173023	    -19.33134124	      9.78312394	     50.56374374	     46.37646314	      0.00000000	      0.00000000
